<svg width="16" height="17" viewBox="0 0 16 17" fill="none" xmlns="http://www.w3.org/2000/svg">
<path d="M8.16059 7.35243V10.1059H12.7147C12.5307 11.2869 11.339 13.568 8.16059 13.568C5.42049 13.568 3.1829 11.3003 3.1829 8.5C3.1829 5.69967 5.42116 3.43197 8.16059 3.43197C9.71968 3.43197 10.7642 4.09375 11.3624 4.6692L13.5398 2.56946C12.1413 1.26398 10.3279 0.470385 8.16059 0.470385C3.72089 0.470385 0.130981 4.06029 0.130981 8.5C0.130981 12.9397 3.72089 16.5296 8.16059 16.5296C12.795 16.5296 15.869 13.2716 15.869 8.68334C15.869 8.15606 15.8121 7.75324 15.7426 7.35243H8.16059Z" fill="black"/>
</svg>
